<svg xmlns="http://www.w3.org/2000/svg" xmlns:xlink="http://www.w3.org/1999/xlink" width="64.43" height="64.9" viewBox="0 0 64.43 64.9">
  <defs>
    <filter id="Path_222" x="0" y="0" width="64.43" height="64.9" filterUnits="userSpaceOnUse">
      <feOffset dy="1" input="SourceAlpha"/>
      <feGaussianBlur stdDeviation="5" result="blur"/>
      <feFlood flood-opacity="0.161"/>
      <feComposite operator="in" in2="blur"/>
      <feComposite in="SourceGraphic"/>
    </filter>
    <filter id="Path_6" x="21.128" y="30.65" width="22.5" height="12.5" filterUnits="userSpaceOnUse">
      <feOffset dy="2" input="SourceAlpha"/>
      <feGaussianBlur stdDeviation="1" result="blur-2"/>
      <feFlood flood-opacity="0.161"/>
      <feComposite operator="in" in2="blur-2"/>
      <feComposite in="SourceGraphic"/>
    </filter>
    <filter id="Path_224" x="25.128" y="20.15" width="14.5" height="14.5" filterUnits="userSpaceOnUse">
      <feOffset dy="0.5" input="SourceAlpha"/>
      <feGaussianBlur stdDeviation="1" result="blur-3"/>
      <feFlood flood-opacity="0.161"/>
      <feComposite operator="in" in2="blur-3"/>
      <feComposite in="SourceGraphic"/>
    </filter>
  </defs>
  <g id="Group_47" data-name="Group 47" transform="translate(-272.068 -1800.1)">
    <g transform="matrix(1, 0, 0, 1, 272.07, 1800.1)" filter="url(#Path_222)">
      <g id="Path_222-2" data-name="Path 222" transform="translate(15 14)" fill="#fff">
        <path d="M17.215,0A17.334,17.334,0,0,1,34.43,17.45,17.334,17.334,0,0,1,17.215,34.9,17.334,17.334,0,0,1,0,17.45,17.334,17.334,0,0,1,17.215,0Z" stroke="none"/>
        <path d="M 17.21500015258789 0.2000007629394531 C 12.67064094543457 0.2000007629394531 8.398139953613281 1.993968963623047 5.184530258178711 5.251449584960938 C 1.970211029052734 8.509649276733398 0.2000007629394531 12.84184837341309 0.2000007629394531 17.44999885559082 C 0.2000007629394531 22.05814743041992 1.970211029052734 26.39034843444824 5.184530258178711 29.6485481262207 C 8.398139953613281 32.90602874755859 12.67064094543457 34.69999694824219 17.21500015258789 34.69999694824219 C 21.75936126708984 34.69999694824219 26.0318603515625 32.90602874755859 29.24547004699707 29.6485481262207 C 32.45978927612305 26.39034843444824 34.22999954223633 22.05814743041992 34.22999954223633 17.44999885559082 C 34.22999954223633 12.84184837341309 32.45978927612305 8.509649276733398 29.24547004699707 5.251449584960938 C 26.0318603515625 1.993968963623047 21.75936126708984 0.2000007629394531 17.21500015258789 0.2000007629394531 M 17.21500015258789 0 C 26.72257995605469 0 34.43000030517578 7.812629699707031 34.43000030517578 17.44999885559082 C 34.43000030517578 27.08736801147461 26.72257995605469 34.89999771118164 17.21500015258789 34.89999771118164 C 7.707420349121094 34.89999771118164 0 27.08736801147461 0 17.44999885559082 C 0 7.812629699707031 7.707420349121094 0 17.21500015258789 0 Z" stroke="none" fill="rgba(112,112,112,0.2)"/>
      </g>
    </g>
    <g id="Group_41" data-name="Group 41" transform="translate(-388 -2002)">
      <g id="Profile" transform="translate(684.446 3824)">
        <g transform="matrix(1, 0, 0, 1, -24.38, -21.9)" filter="url(#Path_6)">
          <path id="Path_6-2" data-name="Path 6" d="M8,10c-4.4,0-8,1.8-8,4v2H16V14C16,11.8,12.4,10,8,10Z" transform="translate(24.38 21.9)" fill="#e23d5d" stroke="#707070" stroke-width="0.5"/>
        </g>
      </g>
      <g transform="matrix(1, 0, 0, 1, 660.07, 3802.1)" filter="url(#Path_224)">
        <path id="Path_224-2" data-name="Path 224" d="M4,0A4,4,0,1,1,0,4,4,4,0,0,1,4,0Z" transform="translate(28.38 22.9)" fill="#e6e6e6" stroke="#707070" stroke-width="0.5"/>
      </g>
    </g>
  </g>
</svg>
