<?xml version="1.0" encoding="iso-8859-1"?>
<!-- Generator: Adobe Illustrator 19.0.0, SVG Export Plug-In . SVG Version: 6.00 Build 0)  -->
<svg version="1.1" id="Capa_1" xmlns="http://www.w3.org/2000/svg" xmlns:xlink="http://www.w3.org/1999/xlink" x="0px" y="0px"
	 viewBox="0 0 512.002 512.002" style="enable-background:new 0 0 512.002 512.002;" xml:space="preserve">
<path style="fill:#0B647D;" d="M164.191,289.396c14.725-15.62,55.512-3.157,78.975,5.89c10.269,3.955,17.227,7.257,17.227,7.257
	s89.86,58.707,45.435,76.839c-8.132,3.32-16.881,4.09-25.735,3.137c-39.516-4.254-116.879-42.866-116.879-42.866L164.191,289.396z"
	/>
<path style="fill:#EA4428;" d="M217.063,174.885l48.636,47.42l35.639-26.721c8.971-6.726,21.714-4.784,28.274,4.308l0,0
	c6.503,9.014,4.429,21.598-4.623,28.048l-42.59,30.344c-9.25,6.59-21.918,5.477-29.877-2.624l-58.041-59.078L217.063,174.885z"/>
<path style="fill:#DAE7EA;" d="M221.911,138.281v87.58c0,3.113-0.794,6.04-2.175,8.596c-0.278,0.515-0.588,1.01-0.907,1.484
	c-0.649,0.959-1.391,1.855-2.206,2.67c-3.267,3.267-7.772,5.288-12.76,5.288h-4.741c-9.967,0-18.048,8.081-18.048,18.048v21.748
	c0,1.876-0.289,3.721-0.855,5.494c-0.186,0.588-0.412,1.175-0.66,1.742l-25.51,58.267c-0.186,0.412-0.371,0.814-0.577,1.206
	c-0.32,0.588-0.66,1.154-1.02,1.701c-0.247,0.361-0.505,0.711-0.773,1.051c-1.35,1.701-2.989,3.144-4.834,4.247
	c-0.361,0.227-0.742,0.433-1.124,0.629c-0.32,0.165-0.649,0.32-0.989,0.464c-0.454,0.206-0.917,0.392-1.392,0.546
	c-1.835,0.618-3.803,0.959-5.813,0.959h-2.886c-3.422,0-6.628,0.959-9.359,2.618c-0.495,0.299-0.969,0.618-1.433,0.969
	c-4.412,3.298-7.256,8.545-7.256,14.461v27.933c0,4.442,1.639,8.72,4.597,12.028l48.557,54.34c2.958,3.309,4.597,7.586,4.597,12.018
	v9.596c0,9.957-8.081,18.038-18.048,18.038H58.593c-5.319,0-10.091-2.298-13.389-5.968c-2.896-3.195-4.649-7.431-4.649-12.07V49.804
	c0-9.967,8.081-18.048,18.038-18.048h31.282c4.783,0,9.369,1.907,12.76,5.288l22.635,22.635c3.381,3.381,5.277,7.968,5.277,12.76
	v29.757c0,9.091,6.72,16.595,15.461,17.852c0.845,0.124,1.711,0.186,2.587,0.186h55.267c4.989,0,9.493,2.02,12.76,5.288
	c0.814,0.814,1.556,1.711,2.206,2.67c0.32,0.484,0.629,0.979,0.907,1.484C221.117,132.231,221.911,135.169,221.911,138.281z"/>
<g>
	<path style="fill:#C8D8DB;" d="M169.543,209.017c-4.269,0-7.73-3.461-7.73-7.73v-46.98c0-4.27,3.461-7.73,7.73-7.73
		s7.73,3.461,7.73,7.73v46.98C177.274,205.556,173.813,209.017,169.543,209.017z"/>
	<path style="fill:#C8D8DB;" d="M92.131,469.236c-4.269,0-7.73-3.461-7.73-7.73v-39.642c0-4.27,3.461-7.73,7.73-7.73
		c4.269,0,7.73,3.461,7.73,7.73v39.642C99.861,465.775,96.4,469.236,92.131,469.236z"/>
	<path style="fill:#C8D8DB;" d="M221.911,138.281v87.58c0,3.113-0.794,6.04-2.175,8.596c-0.278,0.515-0.577,1.01-0.907,1.484
		c-0.649,0.969-1.391,1.866-2.206,2.67c-3.267,3.267-7.772,5.288-12.76,5.288h-4.741c-9.967,0-18.048,8.081-18.048,18.048v21.748
		c0,1.876-0.289,3.721-0.855,5.494c-0.155,0.491-0.343,0.978-0.543,1.457c-0.039,0.094-0.066,0.192-0.106,0.285l-25.51,58.267
		c-0.175,0.412-0.371,0.814-0.588,1.206c-0.309,0.588-0.649,1.154-1.02,1.701c-0.247,0.361-0.505,0.711-0.773,1.051
		c-1.35,1.701-2.989,3.144-4.834,4.247c-0.361,0.227-0.742,0.433-1.124,0.629c-0.32,0.165-0.649,0.32-0.989,0.464
		c-0.454,0.206-0.917,0.392-1.392,0.546c-1.845,0.629-3.803,0.969-5.824,0.969h-2.876c-3.422,0-6.628,0.959-9.359,2.608
		c-0.495,0.299-0.969,0.618-1.433,0.969c-4.412,3.298-7.256,8.545-7.256,14.461v27.933c0,4.442,1.639,8.72,4.597,12.028
		l48.557,54.34c2.958,3.309,4.597,7.586,4.597,12.018v9.596c0,9.957-8.081,18.038-18.048,18.038H58.593
		c-5.319,0-10.091-2.298-13.389-5.968h91.847c9.967,0,18.038-8.081,18.038-18.038v-2.34c0-4.442-1.629-8.72-4.587-12.028
		l-48.568-54.34c-2.948-3.298-4.587-7.586-4.587-12.018v-43.486c0-9.967,8.071-18.048,18.048-18.048h2.876
		c7.174,0,13.657-4.236,16.533-10.802l25.51-58.256c1-2.298,1.515-4.762,1.515-7.236v-21.769c0-9.957,8.071-18.038,18.048-18.038
		h4.741c9.967,0,18.048-8.081,18.048-18.038v-87.58c0-1.299-0.134-2.556-0.402-3.783h1.598c4.989,0,9.493,2.02,12.76,5.288
		c0.814,0.804,1.556,1.701,2.206,2.67c0.33,0.484,0.629,0.979,0.907,1.484C221.117,132.231,221.911,135.169,221.911,138.281z"/>
</g>
<path style="fill:#6969A5;" d="M147.595,447.556c0,0-18.005,12.066-29.554,0s-31.278-4.848-24.541,15.363
	c5.631,16.894,23.703,26.055,29.483,28.606c1.126,0.497,2.342,0.747,3.573,0.747h42.106c4.588,0,8.427-3.482,8.874-8.048
	l2.902-29.647L147.595,447.556z"/>
<path style="fill:#11B3C2;" d="M295.768,407.262c-8.132,3.32-16.881,4.09-25.735,3.137c-39.516-4.254-81.256-42.866-81.256-42.866
	l-3.946,88.051c-0.162,3.62-3.623,6.168-7.128,5.248l-33.266-8.73c-2.392-0.628-4.103-2.727-4.237-5.196
	c-1.103-20.387-4.797-109.771,13.93-129.63c14.725-15.62,55.512-3.157,78.975,5.89c10.269,3.955,17.227,7.257,17.227,7.257
	S340.193,389.13,295.768,407.262z"/>
<path style="fill:#1193AD;" d="M295.768,407.262c-8.132,3.32-16.881,4.09-25.735,3.137c-40.104-29.199-44.675-64.01-44.896-65.896
	l-0.577-5.014l8.546-16.322c10.269,3.955,17.227,7.257,17.227,7.257S340.193,389.13,295.768,407.262z"/>
<path style="fill:#EF5330;" d="M373.88,363.535c-0.66,3.02-1.412,5.793-2.247,8.297c-2.144,6.411-4.731,11.946-7.597,16.718
	c-16.698,27.994-42.445,30.015-42.445,30.015c-74.428-26.077-80.2-75.943-80.2-75.943l15.286-29.18l12.946-24.717l14.677-75.84
	l5.844-30.272h81.489C371.634,182.613,384.755,313.834,373.88,363.535z"/>
<path style="fill:#EA4428;" d="M373.878,340.654v48.419l-9.836-0.52l-7.382-0.385c-2.367-0.125-53.337-3.638-90.803-72.123
	l-3.898,2.772l-5.284-5.38l12.944-24.715l14.677-75.838l4.735-2.733c6.352-4.764,13.897-7.276,21.818-7.276
	c11.674,0,22.713,5.649,29.536,15.1c5.707,7.921,7.988,17.583,6.4,27.217s-6.843,18.064-14.802,23.733l-21.279,15.158
	c9.162,17.006,27.034,43.847,52.249,52.721L373.878,340.654z"/>
<path style="fill:#00AF68;" d="M365.408,182.613v63.771h-4.401c-14.337-25.294-65.038-45.094-65.038-45.094v-18.677H365.408z"/>
<path style="fill:#36CC8F;" d="M357.523,352.238v19.594c0,0-8.225-0.433-20.285-5.916c-16.904-7.689-41.321-25.325-61.132-65.636
	c-2.226-4.525-4.391-9.328-6.483-14.44l18.811-10.513c0,0,2.041,5.298,6.102,13.173c7.947,15.44,23.624,40.827,46.723,55.69
	C346.319,347.445,351.741,350.208,357.523,352.238z"/>
<g>
	<path style="fill:#00C279;" d="M294.536,288.499l-18.429,11.781c-2.226-4.525-4.391-9.328-6.483-14.44l18.811-10.513
		C288.434,275.326,290.475,280.624,294.536,288.499z"/>
	<path style="fill:#00C279;" d="M357.523,352.238v19.594c0,0-8.225-0.433-20.285-5.916l4.02-21.728
		C346.319,347.445,351.741,350.208,357.523,352.238z"/>
</g>
<path style="fill:#F9653D;" d="M214.567,202.545l48.636,47.42l35.639-26.721c8.97-6.726,21.714-4.784,28.274,4.308l0,0
	c6.504,9.014,4.429,21.598-4.623,28.048l-42.59,30.344c-9.25,6.59-21.918,5.478-29.877-2.624l-58.041-59.078L214.567,202.545z"/>
<path style="fill:#36CC8F;" d="M466.594,256.959c0,0-0.381,11.822-2.072,28.85c-0.484,4.958-1.082,10.359-1.814,16.038
	c-5.308,41.332-17.615,97.362-45.527,104.938c-30.984,8.4-53.597-2.123-64.636-9.462c-4.607-3.051-6.803-8.689-5.504-14.069
	c8.73-36.426,12.255-81.262,13.616-115.74c0.247-6.256,0.423-12.173,0.546-17.625c0.093-3.834,0.155-7.442,0.196-10.792
	c0.206-15.852-0.031-25.85-0.031-25.85c45.506-5.411,71.336,1.907,85.993,12.018C466.8,238.653,466.594,256.959,466.594,256.959z"/>
<g>
	<path style="fill:#00C279;" d="M447.357,225.261c-10.105,16.428-28.237,27.371-48.938,27.371c-14.099,0-27.024-5.091-37.024-13.531
		c0.212-15.861-0.029-25.85-0.029-25.85C406.878,207.832,432.7,215.156,447.357,225.261z"/>
	<path style="fill:#00C279;" d="M466.596,256.963c0,0-4.494,137.624-49.41,149.818c-35.686,9.682-60.266-5.746-68.86-12.492
		c12.473,5.784,31.22,10.356,54.809,3.955c44.916-12.194,49.41-149.818,49.41-149.818s0.183-15.851-15.466-28.853
		C466.865,232.681,466.596,256.963,466.596,256.963z"/>
	<path style="fill:#00C279;" d="M466.109,300.847c-1.134,0.371-2.268,0.701-3.401,1c-5.875,1.577-11.822,2.268-17.739,2.268
		c-36.343,0-71.614-26.108-84.313-36.601c0.247-6.256,0.423-12.173,0.546-17.625c1.814,0.031,3.618,0.711,5.051,2.041
		c0.742,0.68,52.917,47.959,95.074,34.22c1.062-0.35,2.154-0.454,3.195-0.34c2.938,0.309,5.576,2.298,6.545,5.298
		C472.386,295.167,470.17,299.527,466.109,300.847z"/>
</g>
<g>
	<path style="fill:#C8D8DB;" d="M146.009,120.048V249.96c0,4.277-3.453,7.73-7.73,7.73c-4.267,0-7.73-3.453-7.73-7.73V102.196
		C130.548,111.287,137.268,118.791,146.009,120.048z"/>
	<path style="fill:#C8D8DB;" d="M80.346,307.13c-4.269,0-7.73-3.461-7.73-7.73v-93.537c0-4.27,3.461-7.73,7.73-7.73
		c4.269,0,7.73,3.461,7.73,7.73V299.4C88.077,303.67,84.616,307.13,80.346,307.13z"/>
	<path style="fill:#C8D8DB;" d="M80.346,169.842c-4.269,0-7.73-3.461-7.73-7.73v-14.864c0-4.27,3.461-7.73,7.73-7.73
		c4.269,0,7.73,3.461,7.73,7.73v14.864C88.077,166.382,84.616,169.842,80.346,169.842z"/>
	<path style="fill:#C8D8DB;" d="M138.282,305.391c-4.269,0-7.73-3.461-7.73-7.73v-14.864c0-4.27,3.461-7.73,7.73-7.73
		s7.73,3.461,7.73,7.73v14.864C146.012,301.931,142.551,305.391,138.282,305.391z"/>
</g>
<circle style="fill:#FFD5B3;" cx="194.442" cy="201.29" r="24.901"/>
<circle style="fill:#7A7AAE;" cx="398.422" cy="195.21" r="46.895"/>
<circle style="fill:#5E5D93;" cx="398.422" cy="195.21" r="26.04"/>
<path style="fill:#00C279;" d="M407.461,369.115h-23.796c-4.27,0-7.73-3.461-7.73-7.73c0-4.27,3.461-7.73,7.73-7.73h23.796
	c4.27,0,7.73,3.461,7.73,7.73C415.192,365.654,411.731,369.115,407.461,369.115z"/>
<path style="fill:#F7C6A1;" d="M403.892,141.475c0,12.533-10.166,22.699-22.699,22.699c-1.072,0-2.13-0.072-3.16-0.222
	c-3.153-0.436-6.098-1.523-8.701-3.124c-6.499-3.989-10.838-11.167-10.838-19.353c0-9.823,6.241-18.188,14.978-21.348
	c2.409-0.879,5.012-1.351,7.721-1.351c2.567,0,5.033,0.429,7.335,1.215C397.465,123.036,403.892,131.501,403.892,141.475z"/>
<path style="fill:#EDB48E;" d="M388.528,119.991v21.684c0,8.951-4.089,16.965-10.495,22.277c-3.153-0.436-6.098-1.523-8.701-3.124
	c-6.499-3.989-10.838-11.167-10.838-19.353c0-9.823,6.241-18.188,14.978-21.348c2.409-0.879,5.012-1.351,7.721-1.351
	C383.76,118.776,386.226,119.204,388.528,119.991z"/>
<path style="fill:#F7C6A1;" d="M257.712,141.475c0,8.186-4.34,15.364-10.838,19.353c-2.602,1.601-5.548,2.688-8.701,3.124
	c-1.029,0.15-2.088,0.222-3.16,0.222c-12.533,0-22.699-10.166-22.699-22.699c0-9.973,6.427-18.438,15.364-21.484
	c2.302-0.786,4.769-1.215,7.335-1.215c2.71,0,5.312,0.472,7.721,1.351C251.471,123.287,257.712,131.651,257.712,141.475z"/>
<path style="fill:#EDB48E;" d="M257.712,141.475c0,8.186-4.34,15.364-10.838,19.353c-2.602,1.601-5.548,2.688-8.701,3.124
	c-6.406-5.312-10.495-13.326-10.495-22.277v-21.684c2.302-0.786,4.769-1.215,7.335-1.215c2.71,0,5.312,0.472,7.721,1.351
	C251.471,123.287,257.712,131.651,257.712,141.475z"/>
<path style="fill:#FFD5B3;" d="M378.881,131.549c0,9.644-1.93,18.838-5.426,27.218c-1.351,3.246-2.938,6.37-4.74,9.344
	c-12.397,20.504-34.903,34.217-60.612,34.217s-48.215-13.712-60.612-34.217c-1.802-2.974-3.389-6.098-4.74-9.344
	c-3.496-8.379-5.426-17.573-5.426-27.218c0-4.611,0.443-9.123,1.287-13.484c1.301-6.778,3.575-13.205,6.67-19.139
	c11.789-22.678,35.496-38.156,62.821-38.156s51.032,15.478,62.821,38.156c3.096,5.934,5.369,12.361,6.67,19.139
	C378.438,122.426,378.881,126.938,378.881,131.549z"/>
<path style="fill:#EDB48E;" d="M292.278,172.384c-2.494,3.465-1.708,8.295,1.757,10.79c4.955,3.567,9.933,4.85,14.424,4.85
	c6.616,0,12.177-2.782,15.059-5.141c3.305-2.704,3.792-7.574,1.088-10.878c-2.704-3.305-7.575-3.792-10.878-1.088
	c-0.196,0.161-4.866,3.881-10.66-0.291C299.608,168.134,294.774,168.917,292.278,172.384z"/>
<g>
	<path style="fill:#C16B3A;" d="M333.131,150.82c0.197-0.161,4.866-3.88,10.66,0.291c1.366,0.983,2.945,1.457,4.51,1.457
		c2.402-0.001,4.769-1.116,6.28-3.215c2.494-3.465,1.708-8.295-1.757-10.79c-12.255-8.822-24.645-3.668-29.483,0.291
		c-3.305,2.704-3.792,7.574-1.088,10.878C324.956,153.038,329.827,153.524,333.131,150.82z"/>
	<path style="fill:#C16B3A;" d="M261.845,149.732c2.703,3.306,7.574,3.792,10.878,1.088c0.197-0.161,4.865-3.88,10.66,0.291
		c1.366,0.983,2.945,1.457,4.51,1.457c2.402-0.001,4.769-1.116,6.28-3.215c2.494-3.465,1.708-8.295-1.757-10.79
		c-12.255-8.822-24.645-3.668-29.483,0.291C259.628,141.558,259.141,146.429,261.845,149.732z"/>
</g>
<circle style="fill:#00AF68;" cx="325.352" cy="17.245" r="17.245"/>
<path style="fill:#36CC8F;" d="M378.882,96.222H237.321c0-6.679,1.001-13.127,2.858-19.19c0.654-2.146,1.415-4.244,2.271-6.294
	c9.951-23.646,33.338-40.248,60.593-40.248h10.125c18.141,0,34.57,7.362,46.465,19.258c5.967,5.967,10.798,13.089,14.118,20.99
	c0.866,2.04,1.627,4.148,2.281,6.294C377.891,83.094,378.882,89.542,378.882,96.222z"/>
<g>
	<path style="fill:#00C279;" d="M378.882,103.946H237.325c-4.269,0-7.73-3.461-7.73-7.73c0-40.5,32.95-73.45,73.45-73.45h10.118
		c40.5,0,73.45,32.95,73.45,73.45C386.612,100.485,383.152,103.946,378.882,103.946z M245.569,88.485h125.069
		c-3.792-28.334-28.121-50.259-57.476-50.259h-10.118C273.69,38.226,249.36,60.151,245.569,88.485z"/>
	<path style="fill:#00C279;" d="M333.017,103.946H283.19c-4.27,0-7.73-3.461-7.73-7.73V55.409c0-18,14.643-32.644,32.644-32.644
		s32.644,14.643,32.644,32.644v40.806C340.747,100.485,337.287,103.946,333.017,103.946z M290.92,88.485h34.366V55.409
		c0-9.475-7.708-17.183-17.183-17.183s-17.183,7.708-17.183,17.183L290.92,88.485L290.92,88.485z"/>
</g>
<path style="fill:#36CC8F;" d="M380.952,114.926H235.254c-6.951,0-12.586-5.635-12.586-12.586v-0.931
	c0-6.951,5.635-12.586,12.586-12.586h145.698c6.951,0,12.586,5.635,12.586,12.586v0.931
	C393.538,109.292,387.903,114.926,380.952,114.926z"/>
<g>
	<path style="fill:#00C279;" d="M380.952,122.657H235.254c-11.202,0-20.316-9.113-20.316-20.315v-0.931
		c0-11.202,9.114-20.316,20.316-20.316h145.698c11.202,0,20.315,9.114,20.315,20.316v0.931
		C401.268,113.543,392.154,122.657,380.952,122.657z M235.254,96.555c-2.677,0-4.855,2.178-4.855,4.856v0.931
		c0,2.676,2.178,4.855,4.855,4.855h145.698c2.676,0,4.855-2.178,4.855-4.855v-0.931c0-2.677-2.178-4.856-4.855-4.856H235.254z"/>
	<path style="fill:#00C279;" d="M343.216,122.657H272.99c-9.252,0-16.779-7.527-16.779-16.778v-8.005
		c0-9.252,7.527-16.779,16.779-16.779h70.226c9.252,0,16.779,7.527,16.779,16.779v8.005
		C359.996,115.13,352.469,122.657,343.216,122.657z M272.99,96.555c-0.727,0-1.319,0.592-1.319,1.319v8.005
		c0,0.727,0.592,1.318,1.319,1.318h70.226c0.727,0,1.319-0.591,1.319-1.318v-8.005c0-0.727-0.592-1.319-1.319-1.319H272.99z"/>
</g>
<g>
</g>
<g>
</g>
<g>
</g>
<g>
</g>
<g>
</g>
<g>
</g>
<g>
</g>
<g>
</g>
<g>
</g>
<g>
</g>
<g>
</g>
<g>
</g>
<g>
</g>
<g>
</g>
<g>
</g>
</svg>
