<?xml version="1.0" encoding="UTF-8"?>
<svg xmlns="http://www.w3.org/2000/svg" xmlns:xlink="http://www.w3.org/1999/xlink" width="512" height="512" viewBox="0 0 60 60" version="1.1"><!-- Generator: Sketch 51.3 (57544) - http://www.bohemiancoding.com/sketch --><title>028 - Camera</title><desc>Created with Sketch.</desc><defs/><g id="Page-1" stroke="none" stroke-width="1" fill="none" fill-rule="evenodd"><g id="028---Camera" transform="translate(0.000000, -1.000000)" fill-rule="nonzero"><path d="M14,12 L14,17 L6,17 L6,12 C6.0032948,10.8967981 6.89679813,10.0032948 8,10 L12,10 C13.1032019,10.0032948 13.9967052,10.8967981 14,12 Z" id="Shape" fill="#CFD8DC"/><path d="M11,12 L11,17 L6,17 L6,12 C6.0032948,10.8967981 6.89679813,10.0032948 8,10 L9,10 C10.1032019,10.0032948 10.9967052,10.8967981 11,12 Z" id="Shape" fill="#F5F5F5"/><path d="M50,20 L44.55,22 L33.45,22 L28,20 L31.25,11.89 C31.3065301,11.7486172 31.3733769,11.6115813 31.45,11.48 L33.53,10.04 L33.54,10.04 C33.7017254,10.0113905 33.8657758,9.99799866 34.03,10 L43.97,10 C45.1969626,9.99900794 46.2996483,10.7486755 46.75,11.89 L50,20 Z" id="Shape" fill="#283593"/><path d="M47,20 L41.55,22 L33.45,22 L28,20 L31.25,11.89 C31.3065301,11.7486172 31.3733769,11.6115813 31.45,11.48 L33.53,10.04 L33.54,10.04 C33.7017254,10.0113905 33.8657758,9.99799866 34.03,10 L40.97,10 C42.1969626,9.99900794 43.2996483,10.7486755 43.75,11.89 L47,20 Z" id="Shape" fill="#3F51B5"/><path d="M36.96,8.12 C35.7550605,8.33475208 34.6450735,8.91417929 33.78,9.78 C33.7,9.86 33.62,9.95 33.54,10.04 L33.53,10.04 C32.8031864,10.8669869 32.3156931,11.8765474 32.12,12.96 C32.1065116,13.0010375 32.0681973,13.028775 32.025,13.028775 C31.9818027,13.028775 31.9434884,13.0010375 31.93,12.96 C31.8430018,12.4459056 31.6812909,11.9472968 31.45,11.48 C31.46,11.47 31.46,11.47 31.45,11.47 C31.2506095,11.038281 30.995066,10.6347912 30.69,10.27 C30.5577837,10.0972361 30.4141279,9.93353533 30.26,9.78 C29.5410154,9.0548809 28.6445801,8.53081104 27.66,8.26 C27.4693681,8.20277749 27.2757447,8.1560408 27.08,8.12 C27.0389625,8.10651164 27.011225,8.06819732 27.011225,8.025 C27.011225,7.98180268 27.0389625,7.94348836 27.08,7.93 C27.107637,7.92810072 27.1347206,7.92132983 27.16,7.91 C28.9621362,7.56399457 30.508289,6.4154239 31.36,4.79 C31.6285906,4.24927808 31.8204393,3.67373191 31.93,3.08 C31.9434884,3.03896255 31.9818027,3.01122499 32.025,3.01122499 C32.0681973,3.01122499 32.1065116,3.03896255 32.12,3.08 C32.3303155,4.28644818 32.910405,5.397704 33.78,6.26 C33.9738399,6.45044735 34.1774479,6.63069051 34.39,6.8 C34.5503062,6.92241587 34.717225,7.03592068 34.89,7.14 C35.5218133,7.53593718 36.225045,7.8043203 36.96,7.93 C37.0010375,7.94348836 37.028775,7.98180268 37.028775,8.025 C37.028775,8.06819732 37.0010375,8.10651164 36.96,8.12 Z" id="Shape" fill="#FEC108"/><path d="M34.96,7.12 C34.9355723,7.12196449 34.9117783,7.12876276 34.89,7.14 C33.7111529,7.35904823 32.6266285,7.93095177 31.78,8.78 C31.7,8.86 31.62,8.95 31.54,9.04 L31.53,9.04 C31.1984315,9.41229678 30.9161162,9.82568707 30.69,10.27 C30.5577837,10.0972361 30.4141279,9.93353533 30.26,9.78 C29.5410154,9.0548809 28.6445801,8.53081104 27.66,8.26 C27.5022604,8.1310731 27.3351308,8.01408237 27.16,7.91 C28.9621362,7.56399457 30.508289,6.4154239 31.36,4.79 C31.4918635,4.95375183 31.6320481,5.11062502 31.78,5.26 C32.5030901,5.98924093 33.4020427,6.51965737 34.39,6.8 C34.5774373,6.85388905 34.7677324,6.89728969 34.96,6.93 C35.0010375,6.94348836 35.028775,6.98180268 35.028775,7.025 C35.028775,7.06819732 35.0010375,7.10651164 34.96,7.12 Z" id="Shape" fill="#FFDC00"/><path d="M59,55 C59,57.7614237 56.7614237,60 54,60 L14,60 C16.76,60 19,53.76 19,51 L47.39,51 L59,55 Z" id="Shape" fill="#37474F"/><path d="M56,55 C56,57.7614237 53.7614237,60 51,60 L14,60 C16.76,60 19,53.76 19,51 L44.39,51 L56,55 Z" id="Shape" fill="#607D8B"/><path d="M59,25 L45.17,29 L19,29 L19,20 L54,20 C56.7614237,20 59,22.2385763 59,25 Z" id="Shape" fill="#0377BC"/><path d="M56,25 L42.17,29 L19,29 L19,20 L51,20 C53.7614237,20 56,22.2385763 56,25 Z" id="Shape" fill="#02A9F4"/><polygon id="Shape" fill="#283593" points="59 25 59 55 47.39 55 45.17 25"/><polygon id="Shape" fill="#3F51B5" points="56 25 56 55 47.39 55 45.17 25"/><polygon id="Shape" fill="#3F51B5" points="31.61 55 19 55 19 25 33.83 25"/><rect id="Rectangle-path" fill="#283593" x="1" y="22" width="18" height="33"/><rect id="Rectangle-path" fill="#3F51B5" x="1" y="22" width="15" height="33"/><path d="M45.17,25 C43.3541423,24.3334869 41.4343093,23.994892 39.5,24 C39,24 38.51,24.02 38.02,24.06 C39.4377316,24.1952469 40.832364,24.5111395 42.17,25 C49.4232332,27.6504689 53.8679406,34.9771201 52.8679105,42.6344249 C51.8678804,50.2917297 45.690645,56.2311745 38,56.93 C38.4984912,56.978731 38.999137,57.0020944 39.5,57 C47.507113,57.0063863 54.363091,51.2630649 55.7600915,43.3787584 C57.1570921,35.4944519 52.6918384,27.7451497 45.17,25 Z" id="Shape" fill="#CFD8DC"/><path d="M51.2,36.11 C50.0282756,33.0112948 47.6818987,30.4996295 44.67,29.12 C43.0469506,28.380157 41.2837191,27.9981804 39.5,28 C39.0052831,27.9994638 38.5110065,28.0295211 38.02,28.09 C39.2821152,28.2449814 40.5130512,28.5923414 41.67,29.12 C44.6818987,30.4996295 47.0282756,33.0112948 48.2,36.11 C49.3682509,39.2125297 49.2531042,42.6525366 47.88,45.67 C46.5003705,48.6818987 43.9887052,51.0282756 40.89,52.2 C39.952657,52.5546888 38.9753684,52.7931338 37.98,52.91 C38.4844293,52.9701644 38.9919955,53.0002177 39.5,53 C40.99978,53.0022156 42.4874112,52.7311211 43.89,52.2 C46.9887052,51.0282756 49.5003705,48.6818987 50.88,45.67 C52.2531042,42.6525366 52.3682509,39.2125297 51.2,36.11 Z" id="Shape" fill="#CFD8DC"/><path d="M42.17,25 C40.832364,24.5111395 39.4377316,24.1952469 38.02,24.06 C38.01,24.07 38,24.07 37.98,24.06 C36.5622684,24.1952469 35.167636,24.5111395 33.83,25 C26.5767668,27.6504689 22.1320594,34.9771201 23.1320895,42.6344249 C24.1321196,50.2917297 30.309355,56.2311745 38,56.93 C45.690645,56.2311745 51.8678804,50.2917297 52.8679105,42.6344249 C53.8679406,34.9771201 49.4232332,27.6504689 42.17,25 Z M43.89,52.2 C42.4874112,52.7311211 40.99978,53.0022156 39.5,53 C38.9919955,53.0002177 38.4844293,52.9701644 37.98,52.91 C36.7178848,52.7550186 35.4869488,52.4076586 34.33,51.88 C31.3181013,50.5003705 28.9717244,47.9887052 27.8,44.89 C26.6317491,41.7874703 26.7468958,38.3474634 28.12,35.33 C29.4996295,32.3181013 32.0112948,29.9717244 35.11,28.8 C36.047343,28.4453112 37.0246316,28.2068662 38.02,28.09 C38.5110065,28.0295211 39.0052831,27.9994638 39.5,28 C41.2837191,27.9981804 43.0469506,28.380157 44.67,29.12 C47.6818987,30.4996295 50.0282756,33.0112948 51.2,36.11 C52.3682509,39.2125297 52.2531042,42.6525366 50.88,45.67 C49.5003705,48.6818987 46.9887052,51.0282756 43.89,52.2 Z" id="Shape" fill="#F5F5F5"/><path d="M43.89,52.2 C40.7874703,53.3682509 37.3474634,53.2531042 34.33,51.88 L34.43,50.89 L35.16,44.02 L35.4,41.72 L37.46,44.26 L38.91,46.06 L42.77,50.81 L43.89,52.2 Z" id="Shape" fill="#AD1457"/><path d="M42.77,50.81 C41.4037848,51.3174414 39.9574008,51.5748774 38.5,51.57 C37.1149642,51.5711718 35.7394297,51.3413527 34.43,50.89 L35.16,44.02 L35.4,41.72 L37.46,44.26 L38.91,46.06 L42.77,50.81 Z" id="Shape" fill="#E91E63"/><path d="M38.28,36.4 L35.74,38.46 L33.94,39.91 L27.8,44.89 C26.6317491,41.7874703 26.7468958,38.3474634 28.12,35.33 L35.98,36.16 L38.28,36.4 Z" id="Shape" fill="#FF9801"/><polygon id="Shape" fill="#2C2F38" points="43.6 39.28 43.26 42.54 40.72 44.6 37.46 44.26 35.4 41.72 35.74 38.46 38.28 36.4 41.54 36.74"/><path d="M44.67,29.12 L43.84,36.98 L43.6,39.28 L42.86,38.37 L41.54,36.74 L40.09,34.94 L35.98,29.87 L35.11,28.8 C38.2125297,27.6317491 41.6525366,27.7468958 44.67,29.12 Z" id="Shape" fill="#549414"/><path d="M43.67,30.73 L42.86,38.37 L41.54,36.74 L40.09,34.94 L35.98,29.87 C38.5695913,29.3321644 41.2631935,29.6333995 43.67,30.73 Z" id="Shape" fill="#60A917"/><path d="M52,40.5 C52.0018196,42.2837191 51.619843,44.0469506 50.88,45.67 L48.96,45.47 L43.02,44.84 L40.72,44.6 L43.26,42.54 L45.06,41.09 L49.6,37.4 L51.2,36.11 C51.7311211,37.5125888 52.0022156,39.00022 52,40.5 Z" id="Shape" fill="#283593"/><path d="M50,40.5 C50.0011426,42.2108005 49.6469992,43.903197 48.96,45.47 L43.02,44.84 L40.72,44.6 L43.26,42.54 L45.06,41.09 L49.6,37.4 C49.8657019,38.4119079 50.0001383,39.4537901 50,40.5 Z" id="Shape" fill="#3F51B5"/><path d="M35.74,38.46 L35.4,41.72 L35.16,44.02 L34.33,51.88 C31.3181013,50.5003705 28.9717244,47.9887052 27.8,44.89 L33.94,39.91 L35.74,38.46 Z" id="Shape" fill="#F44335"/><path d="M41.54,36.74 L38.28,36.4 L35.98,36.16 L28.12,35.33 C29.4996295,32.3181013 32.0112948,29.9717244 35.11,28.8 L40.09,34.94 L41.54,36.74 Z" id="Shape" fill="#FFDC00"/><path d="M51.2,36.11 L45.06,41.09 L43.26,42.54 L43.35,41.71 L43.6,39.28 L43.84,36.98 L44.49,30.81 L44.67,29.12 C47.6818987,30.4996295 50.0282756,33.0112948 51.2,36.11 Z" id="Shape" fill="#0377BC"/><path d="M49.33,36.86 L43.35,41.71 L43.6,39.28 L43.84,36.98 L44.49,30.81 C46.7002867,32.266551 48.3941596,34.383892 49.33,36.86 Z" id="Shape" fill="#02A9F4"/><path d="M50.88,45.67 C49.5003705,48.6818987 46.9887052,51.0282756 43.89,52.2 L42.85,50.92 L38.91,46.06 L37.46,44.26 L40.72,44.6 L43.02,44.84 L48.77,45.45 L50.88,45.67 Z" id="Shape" fill="#4527A0"/><path d="M48.77,45.45 C47.4472889,47.8711518 45.3679585,49.792425 42.85,50.92 L38.91,46.06 L37.46,44.26 L40.72,44.6 L43.02,44.84 L48.77,45.45 Z" id="Shape" fill="#673AB7"/><polygon id="Shape" fill="#CFD8DC" points="44.55 20 33.45 20 35.71 15 42.29 15"/><polygon id="Shape" fill="#F5F5F5" points="41.55 20 33.45 20 35.71 15 39.29 15"/><path d="M19,20 L19,23 L1,23 L1,20 C1,17.2385763 3.23857625,15 6,15 L14,15 C16.7614237,15 19,17.2385763 19,20 Z" id="Shape" fill="#0377BC"/><path d="M16,20 L16,23 L1,23 L1,20 C1,17.2385763 3.23857625,15 6,15 L11,15 C13.7614237,15 16,17.2385763 16,20 Z" id="Shape" fill="#02A9F4"/><path d="M19,53 L19,55 C19,57.7614237 16.7614237,60 14,60 L6,60 C4.67391755,60 3.40214799,59.4732158 2.46446609,58.5355339 C1.5267842,57.597852 1,56.3260824 1,55 L1,53 L19,53 Z" id="Shape" fill="#37474F"/><path d="M16,53 L16,55 C16,57.7614237 13.7614237,60 11,60 L6,60 C4.67391755,60 3.40214799,59.4732158 2.46446609,58.5355339 C1.5267842,57.597852 1,56.3260824 1,55 L1,53 L16,53 Z" id="Shape" fill="#607D8B"/><path d="M54,61 L6,61 C2.68766243,60.9966926 0.00330737898,58.3123376 0,55 L0,20 C-6.76353751e-17,19.4477153 0.44771525,19 1,19 C1.55228475,19 2,19.4477153 2,20 L2,55 C2,57.209139 3.790861,59 6,59 L54,59 C56.209139,59 58,57.209139 58,55 L58,25 C58,22.790861 56.209139,21 54,21 L19,21 C18.4477153,21 18,20.5522847 18,20 C18,19.4477153 18.4477153,19 19,19 L54,19 C57.3123376,19.0033074 59.9966926,21.6876624 60,25 L60,55 C59.9966926,58.3123376 57.3123376,60.9966926 54,61 Z" id="Shape" fill="#000000"/><path d="M14,61 L6,61 C2.68766243,60.9966926 0.00330737898,58.3123376 0,55 L0,20 C0.00330737898,16.6876624 2.68766243,14.0033074 6,14 L14,14 C17.3123376,14.0033074 19.9966926,16.6876624 20,20 L20,55 C19.9966926,58.3123376 17.3123376,60.9966926 14,61 Z M6,16 C3.790861,16 2,17.790861 2,20 L2,55 C2,57.209139 3.790861,59 6,59 L14,59 C16.209139,59 18,57.209139 18,55 L18,20 C18,17.790861 16.209139,16 14,16 L6,16 Z" id="Shape" fill="#000000"/><path d="M14,16 L6,16 C5.44771525,16 5,15.5522847 5,15 L5,12 C5,10.3431458 6.34314575,9 8,9 L12,9 C13.6568542,9 15,10.3431458 15,12 L15,15 C15,15.5522847 14.5522847,16 14,16 Z M7,14 L13,14 L13,12 C13,11.4477153 12.5522847,11 12,11 L8,11 C7.44771525,11 7,11.4477153 7,12 L7,14 Z" id="Shape" fill="#000000"/><path d="M59,56 L47.39,56 C46.8377153,56 46.39,55.5522847 46.39,55 C46.39,54.4477153 46.8377153,54 47.39,54 L58,54 L58,26 L45.17,26 C44.6177153,26 44.17,25.5522847 44.17,25 C44.17,24.4477153 44.6177153,24 45.17,24 L59,24 C59.5522847,24 60,24.4477153 60,25 L60,55 C60,55.5522847 59.5522847,56 59,56 Z" id="Shape" fill="#000000"/><path d="M33.83,26 L28,26 C27.4477153,26 27,25.5522847 27,25 C27,24.4477153 27.4477153,24 28,24 L33.83,24 C34.3822847,24 34.83,24.4477153 34.83,25 C34.83,25.5522847 34.3822847,26 33.83,26 Z" id="Shape" fill="#000000"/><path d="M31.61,56 L19,56 C18.4477153,56 18,55.5522847 18,55 L18,25 C18,24.4477153 18.4477153,24 19,24 L22,24 C22.5522847,24 23,24.4477153 23,25 C23,25.5522847 22.5522847,26 22,26 L20,26 L20,54 L31.61,54 C32.1622847,54 32.61,54.4477153 32.61,55 C32.61,55.5522847 32.1622847,56 31.61,56 Z" id="Shape" fill="#000000"/><path d="M19,56 C18.4477153,56 18,55.5522847 18,55 L18,24 L2,24 L2,55 C2,55.5522847 1.55228475,56 1,56 C0.44771525,56 6.76353751e-17,55.5522847 0,55 L0,23 C-6.76353751e-17,22.4477153 0.44771525,22 1,22 L19,22 C19.5522847,22 20,22.4477153 20,23 L20,55 C20,55.5522847 19.5522847,56 19,56 Z" id="Shape" fill="#000000"/><path d="M39.5,58 C31.0077705,58.0069116 23.7362697,51.9158566 22.2542884,43.5539345 C20.7723072,35.1920124 25.5076368,26.97299 33.485,24.061 C37.3714974,22.6535266 41.6285026,22.6535266 45.515,24.061 C53.4923632,26.97299 58.2276928,35.1920124 56.7457116,43.5539345 C55.2637303,51.9158566 47.9922295,58.0069116 39.5,58 Z M39.5,25 C37.6840612,24.9942973 35.8816081,25.3119191 34.177,25.938 C27.1168815,28.5201378 22.9274151,35.7961291 24.2385813,43.1983958 C25.5497475,50.6006624 31.9835065,55.9949579 39.501,55.9949579 C47.0184935,55.9949579 53.4522525,50.6006624 54.7634187,43.1983958 C56.0745849,35.7961291 51.8851185,28.5201378 44.825,25.938 C43.1197615,25.3116852 41.3166104,24.9940597 39.5,25 Z M39.5,54 C37.5729062,54.0036948 35.6677676,53.5909432 33.915,52.79 C30.6675458,51.2940635 28.1360618,48.5845032 26.864,45.243 C25.6021731,41.8915026 25.7266748,38.1755227 27.21,34.916 C29.4697589,29.9476976 34.4988679,26.8289183 39.9538349,27.0129682 C45.4088019,27.1970181 50.2162587,30.6476818 52.136,35.757 C53.3978269,39.1084974 53.2733252,42.8244773 51.79,46.084 C50.294387,49.3313254 47.5851846,51.8628104 44.244,53.135 C42.7283436,53.7091269 41.1207501,54.0022484 39.5,54 Z M39.5,29 C38.1214662,28.9972674 36.7540264,29.2463549 35.465,29.735 C32.6154771,30.818851 30.3046927,32.9770432 29.029,35.746 C27.7678223,38.5206923 27.6616927,41.682994 28.734,44.536 C29.8186612,47.38454 31.9766834,49.6944244 34.745,50.97 C37.5198658,52.2292082 40.6807384,52.3370878 43.535,51.27 C46.3839061,50.1860733 48.6942435,48.0283223 49.97,45.26 C51.2334057,42.4857675 51.3413409,39.3229076 50.27,36.469 C49.1853388,33.62046 47.0273166,31.3105756 44.259,30.035 C42.7658322,29.3509486 41.1423982,28.9978799 39.5,29 Z M40.72,45.6 C40.686,45.6 40.65,45.6 40.62,45.595 L37.36,45.254 C37.0966416,45.2264244 36.8549719,45.09552 36.688,44.89 L34.628,42.35 C34.4608323,42.1439445 34.3824101,41.8798991 34.41,41.616 L34.75,38.356 C34.7773203,38.0922835 34.9082486,37.85021 35.114,37.683 L37.654,35.623 C37.8605205,35.4567162 38.1241938,35.3784045 38.388,35.405 L41.648,35.746 C41.9113584,35.7735756 42.1530281,35.90448 42.32,36.11 L44.38,38.65 C44.5469111,38.8558008 44.6253177,39.119434 44.598,39.383 L44.258,42.644 C44.2306797,42.9077165 44.0997514,43.14979 43.894,43.317 L41.354,45.377 C41.1747222,45.5222499 40.9507315,45.6010353 40.72,45.6 Z M37.976,43.308 L40.411,43.562 L42.311,42.024 L42.565,39.588 L41.027,37.688 L38.592,37.434 L36.692,38.972 L36.439,41.408 L37.976,43.308 Z" id="Shape" fill="#000000"/><path d="M34.33,52.88 C34.1868187,52.8800561 34.045295,52.8493642 33.915,52.79 C30.6675458,51.2940635 28.1360618,48.5845032 26.864,45.243 C26.7118204,44.8397488 26.8351375,44.384362 27.17,44.113 L35.113,37.681 C35.4274613,37.4283983 35.8628935,37.3894476 36.2171955,37.5822263 C36.5714974,37.7750051 36.7752959,38.1617667 36.734,38.563 L35.324,51.985 C35.272682,52.4956104 34.8431825,52.8844932 34.33,52.885 L34.33,52.88 Z M29.009,45.2 C29.9650353,47.3063058 31.5249548,49.0813147 33.491,50.3 L34.5,40.747 L29.009,45.2 Z" id="Shape" fill="#000000"/><path d="M27.8,45.89 C27.7118143,45.8902394 27.624007,45.8784645 27.539,45.855 C27.2295556,45.7714357 26.9789217,45.5446008 26.865,45.245 C25.6020803,41.8930789 25.7262288,38.1761786 27.21,34.916 C27.3866687,34.5223448 27.7971274,34.2876239 28.226,34.335 L38.384,35.405 C38.7866205,35.4467305 39.1243748,35.727062 39.2395612,36.1151043 C39.3547475,36.5031466 39.224645,36.9223566 38.91,37.177 L28.43,45.667 C28.2517877,45.811382 28.0293595,45.8901145 27.8,45.89 Z M28.755,36.403 C27.9294987,38.5673102 27.7768347,40.9304653 28.317,43.183 L35.775,37.144 L28.755,36.403 Z" id="Shape" fill="#000000"/><path d="M41.54,37.74 C41.506,37.74 41.471,37.74 41.44,37.735 L28.018,36.325 C27.6988869,36.2898895 27.4160339,36.1037037 27.2576079,35.8244778 C27.0991818,35.5452519 27.0844484,35.2069416 27.218,34.915 C28.7136715,31.6673545 31.4233239,29.1357844 34.765,27.864 C35.1679656,27.7123049 35.6227896,27.8355787 35.894,28.17 L42.325,36.113 C42.5662415,36.4127313 42.6141255,36.8242858 42.4481435,37.1713972 C42.2821616,37.5185085 41.9317547,37.739608 41.547,37.74 L41.54,37.74 Z M29.7,34.491 L39.253,35.5 L34.8,30.009 C32.6936942,30.9650353 30.9186853,32.5249548 29.7,34.491 Z" id="Shape" fill="#000000"/><path d="M43.6,40.28 C43.2984621,40.2801221 43.0129688,40.1441729 42.823,39.91 L34.334,29.43 C34.1317967,29.1807359 34.0615299,28.8495624 34.1450931,28.5396657 C34.2286563,28.229769 34.4558925,27.9788167 34.756,27.865 C38.1090484,26.6089352 41.8232392,26.7329932 45.085,28.21 C45.476163,28.3886472 45.7093145,28.797367 45.664,29.225 L44.594,39.384 C44.542682,39.8946104 44.1131825,40.2834932 43.6,40.284 L43.6,40.28 Z M36.817,29.317 L42.855,36.775 L43.598,29.754 C41.4327512,28.9310799 39.0699652,28.7788107 36.817,29.317 Z" id="Shape" fill="#000000"/><path d="M43.26,43.54 C42.9775562,43.5397211 42.708402,43.4200141 42.5190363,43.2104545 C42.3296706,43.0008949 42.2377555,42.7210282 42.266,42.44 L43.676,29.018 C43.7112214,28.6991624 43.8972593,28.416575 44.1762094,28.2581931 C44.4551594,28.0998113 44.7931569,28.0848626 45.085,28.218 C48.3324542,29.7139365 50.8639382,32.4234968 52.136,35.765 C52.2881796,36.1682512 52.1648625,36.623638 51.83,36.895 L43.887,43.327 C43.7082552,43.4671468 43.4871249,43.5422676 43.26,43.54 Z M45.509,30.7 L44.5,40.253 L49.987,35.803 C49.0325318,33.6961342 47.4740123,31.9200901 45.509,30.7 Z" id="Shape" fill="#000000"/><path d="M50.88,46.67 C50.846,46.67 50.811,46.67 50.774,46.665 L40.616,45.6 C40.2133795,45.5582695 39.8756252,45.277938 39.7604388,44.8898957 C39.6452525,44.5018534 39.775355,44.0826434 40.09,43.828 L50.57,35.338 C50.8192641,35.1357967 51.1504376,35.0655299 51.4603343,35.1490931 C51.770231,35.2326563 52.0211833,35.4598925 52.135,35.76 C53.3979197,39.1119211 53.2737712,42.8288214 51.79,46.089 C51.6262542,46.4438445 51.2708026,46.6707866 50.88,46.67 Z M43.225,43.856 L50.245,44.597 C51.0705013,42.4326898 51.2231653,40.0695347 50.683,37.817 L43.225,43.856 Z" id="Shape" fill="#000000"/><path d="M43.89,53.2 C43.5884621,53.2001221 43.3029688,53.0641729 43.113,52.83 L36.682,44.887 C36.4288851,44.5727085 36.38948,44.1370819 36.5820887,43.782472 C36.7746974,43.4278621 37.1615695,43.2237708 37.563,43.265 L50.985,44.675 C51.3041131,44.7101105 51.5869661,44.8962963 51.7453921,45.1755222 C51.9038182,45.4547481 51.9185516,45.7930584 51.785,46.085 C50.289387,49.3323254 47.5801846,51.8638104 44.239,53.136 C44.1273604,53.177781 44.0092005,53.1994493 43.89,53.2 Z M39.747,45.5 L44.2,50.991 C46.3064754,50.0347479 48.0815129,48.4744551 49.3,46.508 L39.747,45.5 Z" id="Shape" fill="#000000"/><path d="M39.5,54 C37.5729062,54.0036948 35.6677676,53.5909432 33.915,52.79 C33.523837,52.6113528 33.2906855,52.202633 33.336,51.775 L34.406,41.616 C34.4481255,41.2138793 34.7282555,40.8766922 35.1158427,40.761576 C35.50343,40.6464597 35.9222016,40.7760679 36.177,41.09 L44.666,51.57 C44.8682033,51.8192641 44.9384701,52.1504376 44.8549069,52.4603343 C44.7713437,52.770231 44.5441075,53.0211833 44.244,53.135 C42.7284158,53.7093863 41.1207742,54.0025166 39.5,54 Z M35.4,51.246 C37.5654342,52.0680656 39.9279606,52.2203181 42.181,51.683 L36.143,44.225 L35.4,51.246 Z" id="Shape" fill="#000000"/><path d="M40.72,45.6 C40.686,45.6 40.65,45.6 40.62,45.595 L37.36,45.254 C37.0966416,45.2264244 36.8549719,45.09552 36.688,44.89 L34.628,42.35 C34.4608323,42.1439445 34.3824101,41.8798991 34.41,41.616 L34.75,38.356 C34.7773203,38.0922835 34.9082486,37.85021 35.114,37.683 L37.654,35.623 C37.8605205,35.4567162 38.1241938,35.3784045 38.388,35.405 L41.648,35.746 C41.9113584,35.7735756 42.1530281,35.90448 42.32,36.11 L44.38,38.65 C44.5469111,38.8558008 44.6253177,39.119434 44.598,39.383 L44.258,42.644 C44.2306797,42.9077165 44.0997514,43.14979 43.894,43.317 L41.354,45.377 C41.1747222,45.5222499 40.9507315,45.6010353 40.72,45.6 Z M37.976,43.308 L40.411,43.562 L42.311,42.024 L42.565,39.588 L41.027,37.688 L38.592,37.434 L36.692,38.972 L36.439,41.408 L37.976,43.308 Z" id="Shape" fill="#000000"/><path d="M19,54 L1,54 C0.44771525,54 6.76353751e-17,53.5522847 0,53 C-6.76353751e-17,52.4477153 0.44771525,52 1,52 L19,52 C19.5522847,52 20,52.4477153 20,53 C20,53.5522847 19.5522847,54 19,54 Z" id="Shape" fill="#000000"/><circle id="Oval" fill="#000000" cx="25" cy="25" r="1"/><path d="M50,21 L28,21 C27.6679242,21.0002548 27.3573829,20.8356458 27.1711964,20.5606749 C26.9850099,20.2857041 26.9474677,19.9362437 27.071,19.628 L30.321,11.518 C30.392,11.353 30.46,11.2 30.539,11.057 C30.7011274,10.6994831 31.0574397,10.4698944 31.45,10.47 C31.8182193,10.467337 32.1581096,10.6672516 32.334715,10.9903663 C32.5113204,11.313481 32.4960626,11.7075095 32.295,12.016 C32.2473168,12.1013681 32.2055519,12.1899097 32.17,12.281 L29.478,19 L48.521,19 L45.821,12.262 C45.5246417,11.4987944 44.7887199,10.9970476 43.97,11 L34.03,11 C33.9248793,10.9976526 33.8197664,11.0050172 33.716,11.022 C33.3592443,11.102634 32.9869282,10.982066 32.7451616,10.7076113 C32.503395,10.4331566 32.4307534,10.0486061 32.5557437,9.70487092 C32.6807341,9.36113572 32.9834135,9.11306103 33.345,9.058 C33.5710141,9.01726517 33.8003544,8.99784657 34.03,9 L43.97,9 C45.609238,8.99346298 47.0835836,9.99609746 47.68,11.523 L50.929,19.628 C51.0525323,19.9362437 51.0149901,20.2857041 50.8288036,20.5606749 C50.6426171,20.8356458 50.3320758,21.0002548 50,21 Z" id="Shape" fill="#000000"/><path d="M44.551,21 C44.1578438,21.0003208 43.8009803,20.7702377 43.639,20.412 L41.645,16 L36.355,16 L34.361,20.412 C34.1273068,20.9045201 33.542188,21.1191153 33.0454731,20.8944758 C32.5487582,20.6698363 32.3234896,20.0887433 32.539,19.588 L34.799,14.588 C34.9608311,14.2300925 35.3172061,14.0000722 35.71,14 L42.29,14 C42.6827939,14.0000722 43.0391689,14.2300925 43.201,14.588 L45.461,19.588 C45.5701592,19.8297419 45.5788047,20.1049486 45.4850341,20.3530654 C45.3912636,20.6011823 45.2027599,20.8018805 44.961,20.911 C44.832271,20.9696469 44.6924589,20.9999963 44.551,21 Z" id="Shape" fill="#000000"/><path d="M57.586,4.414 C57.1816041,4.41391365 56.8170659,4.1702725 56.662322,3.79665456 C56.5075781,3.42303662 56.5930921,2.99299425 56.879,2.707 L58.293,1.293 C58.6853789,0.91402779 59.3090848,0.919447626 59.6948186,1.30518142 C60.0805524,1.69091522 60.0859722,2.31462111 59.707,2.707 L58.293,4.121 C58.1055073,4.30854937 57.8511948,4.41394336 57.586,4.414 Z" id="Shape" fill="#000000"/><path d="M54.758,4.414 C54.4929486,4.41420866 54.2386563,4.30918271 54.051,4.122 L52.636,2.708 C52.2449824,2.31753468 52.2445347,1.68401762 52.635,1.29300003 C53.0254653,0.901982443 53.6589824,0.901534713 54.05,1.292 L55.465,2.707 C55.7509079,2.99299425 55.8364219,3.42303662 55.681678,3.79665456 C55.5269341,4.1702725 55.1623959,4.41391365 54.758,4.414 Z" id="Shape" fill="#000000"/><path d="M53.343,8.657 C52.9381643,8.65731896 52.5730763,8.41352001 52.4182414,8.03946359 C52.2634066,7.66540717 52.3493761,7.23489995 52.636,6.949 L54.051,5.535 C54.3037654,5.28241323 54.6720837,5.18386216 55.017213,5.27647004 C55.3623422,5.36907792 55.6318491,5.63877539 55.724213,5.98397004 C55.8165768,6.32916469 55.7177654,6.69741323 55.465,6.95 L54.05,8.364 C53.8625073,8.55154937 53.6081948,8.65694336 53.343,8.657 Z" id="Shape" fill="#000000"/><path d="M59,8.657 C58.7348052,8.65694336 58.4804927,8.55154937 58.293,8.364 L56.879,6.95 C56.5000278,6.55762111 56.5054476,5.93391522 56.8911814,5.54818142 C57.2769152,5.16244763 57.9006211,5.15702779 58.293,5.536 L59.707,6.95 C59.9929079,7.23599425 60.0784219,7.66603662 59.923678,8.03965456 C59.7689341,8.4132725 59.4043959,8.65691365 59,8.657 Z" id="Shape" fill="#000000"/><path d="M32.024,14.046 C31.4934958,14.0432219 31.0405557,13.6621971 30.947,13.14 C30.5718049,11.085168 28.9645527,9.47672147 26.91,9.1 C26.3855117,9.00930008 26.0024189,8.55427288 26.0024189,8.022 C26.0024189,7.48972712 26.3855117,7.03469992 26.91,6.944 C28.9664193,6.57150315 30.575994,4.96232704 30.949,2.906 C31.0420655,2.38637542 31.4911427,2.00612877 32.019,2 C32.549882,2.00229702 33.0033758,2.38343377 33.097,2.906 C33.2728772,3.91137044 33.7576849,4.83694429 34.484,5.554 C35.2008505,6.28205975 36.1267788,6.76861779 37.133,6.946 C37.6574883,7.03669992 38.0405811,7.49172712 38.0405811,8.024 C38.0405811,8.55627288 37.6574883,9.01130008 37.133,9.102 C35.0787572,9.47692443 33.4704681,11.0832231 33.093,13.137 C33.0010026,13.6589157 32.5499385,14.041038 32.02,14.046 L32.024,14.046 Z M31.134,12.781 L31.134,12.791 L31.134,12.781 Z M29.634,8.021 C30.1237625,8.31789735 30.5751509,8.67390307 30.978,9.081 C31.3812012,9.48009296 31.7335379,9.92748335 32.027,10.413 C32.321767,9.92517737 32.6754227,9.47546699 33.08,9.074 C33.4787529,8.67013241 33.9261869,8.31742545 34.412,8.024 C33.9244997,7.72803263 33.4751443,7.37338442 33.074,6.968 C32.6688603,6.5674035 32.3151428,6.11795051 32.021,5.63 C31.4293479,6.60849791 30.6092503,7.42893866 29.631,8.021 L29.634,8.021 Z M32.916,3.255 L32.916,3.267 L32.916,3.255 Z" id="Shape" fill="#000000"/><path d="M5,30 C4.44771525,30 4,29.5522847 4,29 L4,27 C4,26.4477153 4.44771525,26 5,26 C5.55228475,26 6,26.4477153 6,27 L6,29 C6,29.5522847 5.55228475,30 5,30 Z" id="Shape" fill="#000000"/><path d="M5,46 C4.44771525,46 4,45.5522847 4,45 L4,33 C4,32.4477153 4.44771525,32 5,32 C5.55228475,32 6,32.4477153 6,33 L6,45 C6,45.5522847 5.55228475,46 5,46 Z" id="Shape" fill="#000000"/></g></g></svg>
