<svg xmlns="http://www.w3.org/2000/svg" xmlns:xlink="http://www.w3.org/1999/xlink" width="365.634" height="380.946" viewBox="0 0 365.634 380.946">
  <defs>
    <filter id="Subtraction_8" x="163.428" y="15" width="202.206" height="353.167" filterUnits="userSpaceOnUse">
      <feOffset input="SourceAlpha"/>
      <feGaussianBlur stdDeviation="10" result="blur"/>
      <feFlood/>
      <feComposite operator="in" in2="blur"/>
      <feComposite in="SourceGraphic"/>
    </filter>
    <filter id="Subtraction_11" x="0" y="0" width="239.692" height="203.952" filterUnits="userSpaceOnUse">
      <feOffset input="SourceAlpha"/>
      <feGaussianBlur stdDeviation="15" result="blur-2"/>
      <feFlood/>
      <feComposite operator="in" in2="blur-2"/>
      <feComposite in="SourceGraphic"/>
    </filter>
    <filter id="Subtraction_16" x="0" y="171.401" width="239.761" height="209.545" filterUnits="userSpaceOnUse">
      <feOffset input="SourceAlpha"/>
      <feGaussianBlur stdDeviation="15" result="blur-3"/>
      <feFlood/>
      <feComposite operator="in" in2="blur-3"/>
      <feComposite in="SourceGraphic"/>
    </filter>
  </defs>
  <g id="Group_175" data-name="Group 175" transform="translate(-2231.49 -5441.682)">
    <g id="Ellipse_257" data-name="Ellipse 257" transform="translate(2355.148 5565.273)" fill="#fff" stroke="#707070" stroke-width="1">
      <circle cx="66.659" cy="66.659" r="66.659" stroke="none"/>
      <circle cx="66.659" cy="66.659" r="66.159" fill="none"/>
    </g>
    <g transform="matrix(1, 0, 0, 1, 2231.49, 5441.68)" filter="url(#Subtraction_8)">
      <path id="Subtraction_8-2" data-name="Subtraction 8" d="M0,293.167V206.933a58.206,58.206,0,0,0,11.554-1.173A57.483,57.483,0,0,0,22.4,202.393a57.77,57.77,0,0,0,9.813-5.327,58.193,58.193,0,0,0,8.55-7.054,58.244,58.244,0,0,0,7.054-8.55,57.8,57.8,0,0,0,5.326-9.813A57.487,57.487,0,0,0,56.509,160.8a58.2,58.2,0,0,0,1.173-11.643,58.2,58.2,0,0,0-1.173-11.643,57.5,57.5,0,0,0-3.366-10.844,57.8,57.8,0,0,0-5.326-9.813,58.244,58.244,0,0,0-7.054-8.55,58.2,58.2,0,0,0-8.55-7.054A57.8,57.8,0,0,0,22.4,95.93a57.489,57.489,0,0,0-10.844-3.366A58.208,58.208,0,0,0,0,91.39V0A147.685,147.685,0,0,1,25.111,2.913a145.879,145.879,0,0,1,27.528,8.545A146.635,146.635,0,0,1,77.55,24.979a147.692,147.692,0,0,1,21.7,17.908,147.693,147.693,0,0,1,17.908,21.7A146.694,146.694,0,0,1,130.682,89.5a145.934,145.934,0,0,1,8.545,27.528,147.73,147.73,0,0,1,2.979,29.555,147.73,147.73,0,0,1-2.979,29.555,145.932,145.932,0,0,1-8.545,27.528,146.7,146.7,0,0,1-13.521,24.911,147.7,147.7,0,0,1-17.908,21.7,147.7,147.7,0,0,1-21.7,17.908A146.691,146.691,0,0,1,52.639,281.71a145.933,145.933,0,0,1-27.528,8.545A147.673,147.673,0,0,1,0,293.167Z" transform="translate(193.43 45)" fill="#e23d5d"/>
    </g>
    <text id="_50_" data-name="50 %" transform="translate(2506 5637)" fill="#110d0c" font-size="20" font-family="Roboto-Bold, Roboto" font-weight="700"><tspan x="0" y="0">50 %</tspan></text>
    <path id="Path_418" data-name="Path 418" d="M2276.475,5376.569h102.993s-12.723,14.291-12.462,33.565,4.9,23.892,4.9,23.892l-95.434,1.171a159.727,159.727,0,0,1-2.78-28.5A144,144,0,0,1,2276.475,5376.569Z" transform="translate(0 224.065)" fill="#5c4a72"/>
    <g transform="matrix(1, 0, 0, 1, 2231.49, 5441.68)" filter="url(#Subtraction_11)">
      <path id="Subtraction_11-2" data-name="Subtraction 11" d="M103.276,113.952H0A143.755,143.755,0,0,1,8.066,89.365,145.475,145.475,0,0,1,21.83,64.511,148.1,148.1,0,0,1,40.059,42.856,149.966,149.966,0,0,1,115.534,2.973,153.35,153.35,0,0,1,145.62,0c1.341,0,2.711.018,4.071.054v91.2a60.424,60.424,0,0,0-11.49,1.17,59.029,59.029,0,0,0-29.732,15.711,58.646,58.646,0,0,0-5.193,5.819Z" transform="translate(45 45)" fill="#1975d1"/>
    </g>
    <g transform="matrix(1, 0, 0, 1, 2231.49, 5441.68)" filter="url(#Subtraction_16)">
      <path id="Subtraction_16-2" data-name="Subtraction 16" d="M145.742,119.545a155.553,155.553,0,0,1-29.7-2.852,152,152,0,0,1-27.661-8.18,149.9,149.9,0,0,1-25.03-12.944A147.122,147.122,0,0,1,41.545,78.425,143.148,143.148,0,0,1,23.552,57.648,138.465,138.465,0,0,1,9.965,33.8,134.945,134.945,0,0,1,1.379,7.447C.852,5,.388,2.49,0,0H95.351c.391,1.058.821,2.117,1.279,3.149a54.566,54.566,0,0,0,5.352,9.394,56.408,56.408,0,0,0,7.088,8.185,57.967,57.967,0,0,0,8.591,6.753,59.037,59.037,0,0,0,9.861,5.1,59.893,59.893,0,0,0,10.9,3.223,61.3,61.3,0,0,0,11.342,1.123v82.567C148.422,119.528,147.07,119.545,145.742,119.545Z" transform="translate(45 216.4)" fill="#fff"/>
    </g>
    <text id="_20_" data-name="20 %" transform="translate(2346 5557)" fill="#110d0c" font-size="20" font-family="Roboto-Bold, Roboto" font-weight="700"><tspan x="0" y="0">20 %</tspan></text>
    <text id="_20_2" data-name="20 %" transform="translate(2341 5718)" fill="#110d0c" font-size="20" font-family="Roboto-Bold, Roboto" font-weight="700"><tspan x="0" y="0">20 %</tspan></text>
    <text id="_10_" data-name="10 %" transform="translate(2298 5637)" fill="#fff" font-size="20" font-family="Roboto-Bold, Roboto" font-weight="700"><tspan x="0" y="0">10 %</tspan></text>
  </g>
</svg>
